Coordinates
version=1
nRows=49
nColumns=12
inDegrees=yes

Units are S.I. units (second, meters, Newtons, ...)
Angles are in degrees

endheader
time	SC_y	SC_z	SC_x	AC_y	AC_z	AC_x	GH_y	GH_z	GH_yy	EL_x	PS_y
       0.0              -25.22          37.01          54.96          38.08        -0.5387         -6.835         -41.06          26.21          119.7          51.97          159.3
   0.03828              -25.22          37.01          54.96          38.08        -0.5377         -6.832         -41.07          26.22          119.7          51.98          159.2
   0.07656              -25.22          37.01          54.96          38.09        -0.5367         -6.828         -41.07          26.23          119.7           52.0          159.2
    0.1148              -25.23          37.01          54.96          38.09        -0.5355         -6.824         -41.08          26.23          119.7          52.01          159.2
    0.1531              -25.23          37.01          54.96          38.09        -0.5343         -6.819         -41.09          26.24          119.7          52.02          159.2
    0.1914              -25.23          37.01          54.96           38.1        -0.5331         -6.815         -41.09          26.25          119.7          52.04          159.2
    0.2297              -25.24          37.01          54.96           38.1        -0.5317          -6.81          -41.1          26.26          119.7          52.06          159.1
     0.268              -25.24          37.01          54.96          38.11        -0.5302         -6.804         -41.11          26.27          119.7          52.08          159.1
    0.3062              -25.25           37.0          54.96          38.11        -0.5287         -6.799         -41.12          26.28          119.7           52.1          159.1
    0.3445              -25.25           37.0          54.96          38.12         -0.527         -6.793         -41.13          26.29          119.7          52.12          159.1
    0.3828              -25.26           37.0          54.96          38.12        -0.5252         -6.786         -41.14           26.3          119.7          52.14          159.0
    0.4211              -25.26           37.0          54.95          38.13        -0.5232         -6.779         -41.15          26.31          119.7          52.16          159.0
    0.4593              -25.27           37.0          54.95          38.13        -0.5211         -6.771         -41.16          26.32          119.7          52.19          159.0
    0.4976              -25.28           37.0          54.95          38.14        -0.5188         -6.763         -41.18          26.33          119.7          52.22          158.9
    0.5359              -25.29           37.0          54.95          38.15        -0.5164         -6.754         -41.19          26.35          119.7          52.25          158.9
    0.5742              -25.29           37.0          54.95          38.16        -0.5137         -6.745         -41.21          26.37          119.7          52.28          158.8
    0.6125               -25.3           37.0          54.95          38.17        -0.5108         -6.734         -41.22          26.38          119.7          52.32          158.8
    0.6507              -25.31           37.0          54.95          38.18        -0.5077         -6.723         -41.24           26.4          119.7          52.36          158.7
     0.689              -25.32           37.0          54.95          38.19        -0.5043          -6.71         -41.26          26.42          119.7           52.4          158.7
    0.7273              -25.34           37.0          54.95           38.2        -0.5005         -6.697         -41.28          26.45          119.7          52.45          158.6
    0.7656              -25.35           37.0          54.95          38.21        -0.4964         -6.682         -41.31          26.47          119.7           52.5          158.5
    0.8039              -25.36          36.99          54.95          38.22        -0.4918         -6.665         -41.33           26.5          119.7          52.56          158.5
    0.8421              -25.38          36.99          54.94          38.24        -0.4868         -6.647         -41.36          26.53          119.6          52.62          158.4
    0.8804               -25.4          36.99          54.94          38.26        -0.4812         -6.627         -41.39          26.56          119.6          52.69          158.3
    0.9187              -25.41          36.99          54.94          38.27         -0.475         -6.604         -41.43           26.6          119.6          52.77          158.2
     0.957              -25.44          36.99          54.94           38.3        -0.4681         -6.579         -41.47          26.64          119.6          52.85          158.0
    0.9953              -25.46          36.98          54.94          38.32        -0.4604         -6.551         -41.52          26.69          119.6          52.95          157.9
     1.034              -25.49          36.98          54.94          38.35        -0.4517          -6.52         -41.57          26.74          119.6          53.06          157.8
     1.072              -25.52          36.98          54.93          38.38        -0.4419         -6.484         -41.62           26.8          119.6          53.18          157.6
      1.11              -25.55          36.98          54.93          38.41        -0.4307         -6.443         -41.69          26.87          119.5          53.32          157.4
     1.148              -25.59          36.97          54.93          38.45        -0.4179         -6.397         -41.76          26.94          119.5          53.48          157.2
     1.187              -25.64          36.97          54.92          38.49        -0.4033         -6.344         -41.85          27.03          119.5          53.67          156.9
     1.225              -25.69          36.96          54.92          38.54        -0.3864         -6.283         -41.95          27.13          119.5          53.88          156.6
     1.263              -25.75          36.96          54.91           38.6        -0.3668         -6.212         -42.06          27.25          119.4          54.12          156.3
     1.301              -25.82          36.95          54.91          38.67        -0.3439         -6.129         -42.19          27.39          119.4          54.41          155.9
      1.34              -25.91          36.94           54.9          38.76        -0.3168         -6.031         -42.35          27.56          119.3          54.75          155.5
     1.378              -26.01          36.93          54.89          38.85        -0.2846         -5.914         -42.54          27.75          119.3          55.15          154.9
     1.416              -26.13          36.92          54.88          38.97        -0.2461         -5.774         -42.76          27.98          119.2          55.63          154.2
     1.455              -26.27          36.91          54.87          39.11        -0.1995         -5.605         -43.03          28.26          119.1          56.22          153.4
     1.493              -26.45          36.89          54.85          39.28        -0.1425         -5.398         -43.36          28.61          119.0          56.93          152.5
     1.531              -26.67          36.87          54.83           39.5       -0.07218         -5.144         -43.77          29.03          118.9          57.81          151.3
     1.569              -26.94          36.84          54.81          39.76         0.0155         -4.826         -44.28          29.56          118.7          58.91          149.8
     1.608              -27.28          36.81          54.78           40.1          0.126         -4.425         -44.92          30.23          118.5          60.29          147.9
     1.646              -27.72          36.76          54.74          40.53         0.2664         -3.916         -45.73          31.08          118.3          62.05          145.4
     1.684              -28.28          36.71          54.69          41.07         0.4461         -3.264         -46.78          32.16          117.9           64.3          142.4
     1.723               -29.0          36.64          54.63          41.77         0.6767         -2.428         -48.12          33.56          117.5          67.19          138.4
     1.761              -29.92          36.55          54.55          42.67         0.9713          -1.36         -49.83          35.33          117.0          70.88          133.4
     1.799              -31.07          36.44          54.45          43.79          1.342         -0.017         -51.98          37.57          116.3          75.52          127.0
     1.837              -32.47           36.3          54.33          45.16          1.793           1.62          -54.6           40.3          115.4          81.18          119.3
